<?xml version="1.0" encoding="utf-8"?>
<!-- Generator: Adobe Illustrator 27.5.0, SVG Export Plug-In . SVG Version: 6.00 Build 0)  -->
<svg version="1.1" xmlns="http://www.w3.org/2000/svg" xmlns:xlink="http://www.w3.org/1999/xlink" x="0px" y="0px"
	 viewBox="0 0 1200 1200" style="enable-background:new 0 0 1200 1200;" xml:space="preserve">
<g id="Layer_2">
	<g>
		<g>
			<rect style="fill:#F5B730;" width="1200" height="1200"/>
		</g>
	</g>
</g>
<g id="Layer_1">
	<g>
		<path style="fill:#FFFFFF;" d="M241.348,1078.097v6.695c0,4.081-0.996,7.213-2.987,9.396c-1.993,2.185-4.933,3.276-8.82,3.276
			s-6.829-1.092-8.82-3.276c-1.992-2.184-2.987-5.315-2.987-9.396v-26.208c0-4.079,0.995-7.211,2.987-9.396
			c1.991-2.184,4.933-3.276,8.82-3.276s6.827,1.093,8.82,3.276c1.991,2.185,2.987,5.316,2.987,9.396v4.896h-7.487v-5.4
			c0-1.823-0.373-3.106-1.116-3.852c-0.745-0.744-1.74-1.116-2.988-1.116c-1.249,0-2.244,0.372-2.988,1.116
			c-0.744,0.745-1.115,2.028-1.115,3.852v27.217c0,1.824,0.371,3.096,1.115,3.815c0.744,0.72,1.739,1.08,2.988,1.08
			c1.248,0,2.243-0.36,2.988-1.08c0.743-0.72,1.116-1.991,1.116-3.815v-7.2H241.348z"/>
		<path style="fill:#FFFFFF;" d="M254.091,1096.889h-7.92v-50.4h7.92v21.601h9v-21.601h8.064v50.4h-8.064v-21.601h-9V1096.889z"/>
		<path style="fill:#FFFFFF;" d="M284.835,1067.729h10.872v7.2h-10.872v14.76h13.681v7.2h-21.601v-50.4h21.601v7.2h-13.681V1067.729
			z"/>
		<path style="fill:#FFFFFF;" d="M302.402,1058.584c0-4.079,0.972-7.211,2.916-9.396c1.944-2.184,4.86-3.276,8.748-3.276
			s6.804,1.093,8.748,3.276c1.943,2.185,2.916,5.316,2.916,9.396v1.584h-7.488v-2.088c0-1.823-0.349-3.106-1.044-3.852
			c-0.696-0.744-1.668-1.116-2.916-1.116c-1.249,0-2.221,0.372-2.916,1.116c-0.696,0.745-1.044,2.028-1.044,3.852
			c0,1.729,0.384,3.253,1.152,4.572c0.767,1.321,1.728,2.568,2.88,3.744c1.151,1.177,2.387,2.353,3.708,3.528
			c1.319,1.177,2.556,2.46,3.708,3.852c1.151,1.393,2.111,2.977,2.88,4.752c0.768,1.776,1.152,3.864,1.152,6.264
			c0,4.081-0.997,7.213-2.988,9.396c-1.992,2.185-4.933,3.276-8.82,3.276c-3.888,0-6.829-1.092-8.82-3.276
			c-1.992-2.184-2.987-5.315-2.987-9.396v-3.096h7.487v3.601c0,1.824,0.372,3.096,1.116,3.815c0.744,0.72,1.739,1.08,2.988,1.08
			c1.248,0,2.243-0.36,2.988-1.08c0.743-0.72,1.115-1.991,1.115-3.815c0-1.729-0.385-3.252-1.151-4.572
			c-0.769-1.319-1.729-2.567-2.88-3.744c-1.152-1.176-2.389-2.352-3.708-3.528c-1.321-1.176-2.557-2.459-3.708-3.852
			c-1.152-1.392-2.113-2.976-2.88-4.752C302.786,1063.073,302.402,1060.985,302.402,1058.584z"/>
		<path style="fill:#FFFFFF;" d="M328.034,1046.488h24.479v7.2h-8.279v43.2h-7.92v-43.2h-8.28V1046.488z"/>
		<path style="fill:#FFFFFF;" d="M375.048,1067.729h10.872v7.2h-10.872v14.76h13.681v7.2h-21.601v-50.4h21.601v7.2h-13.681V1067.729
			z"/>
		<path style="fill:#FFFFFF;" d="M420.048,1046.488l-8.279,24.48l8.855,25.92h-8.352l-6.48-19.944l-6.552,19.944h-7.416l8.855-25.92
			l-8.279-24.48h8.208l5.976,18.576l6.12-18.576H420.048z"/>
		<path style="fill:#FFFFFF;" d="M432.503,1067.729h10.872v7.2h-10.872v14.76h13.681v7.2h-21.601v-50.4h21.601v7.2h-13.681V1067.729
			z"/>
		<path style="fill:#FFFFFF;" d="M467.64,1096.889c-0.098-0.336-0.192-0.648-0.288-0.937c-0.097-0.288-0.181-0.647-0.252-1.08
			c-0.072-0.432-0.121-0.982-0.145-1.655c-0.024-0.672-0.036-1.513-0.036-2.521v-7.92c0-2.352-0.408-4.007-1.224-4.968
			c-0.816-0.96-2.137-1.44-3.96-1.44h-2.736v20.521h-7.92v-50.4h11.952c4.128,0,7.115,0.961,8.964,2.88
			c1.848,1.921,2.773,4.824,2.773,8.712v3.96c0,5.185-1.729,8.593-5.185,10.225c2.017,0.816,3.396,2.148,4.141,3.996
			c0.743,1.848,1.115,4.093,1.115,6.731v7.776c0,1.249,0.048,2.34,0.145,3.275c0.096,0.937,0.335,1.885,0.72,2.845H467.64z
			 M458.999,1053.688v15.479h3.097c1.486,0,2.651-0.383,3.491-1.151c0.84-0.768,1.261-2.16,1.261-4.176v-4.969
			c0-1.823-0.324-3.143-0.973-3.96c-0.647-0.815-1.668-1.224-3.06-1.224H458.999z"/>
		<path style="fill:#FFFFFF;" d="M502.991,1078.097v6.695c0,4.081-0.996,7.213-2.987,9.396c-1.993,2.185-4.933,3.276-8.82,3.276
			c-3.888,0-6.829-1.092-8.82-3.276c-1.992-2.184-2.987-5.315-2.987-9.396v-26.208c0-4.079,0.995-7.211,2.987-9.396
			c1.991-2.184,4.933-3.276,8.82-3.276c3.888,0,6.827,1.093,8.82,3.276c1.991,2.185,2.987,5.316,2.987,9.396v4.896h-7.487v-5.4
			c0-1.823-0.373-3.106-1.116-3.852c-0.745-0.744-1.74-1.116-2.988-1.116c-1.249,0-2.244,0.372-2.988,1.116
			c-0.744,0.745-1.115,2.028-1.115,3.852v27.217c0,1.824,0.371,3.096,1.115,3.815c0.744,0.72,1.739,1.08,2.988,1.08
			c1.248,0,2.243-0.36,2.988-1.08c0.743-0.72,1.116-1.991,1.116-3.815v-7.2H502.991z"/>
		<path style="fill:#FFFFFF;" d="M507.814,1046.488h7.92v50.4h-7.92V1046.488z"/>
		<path style="fill:#FFFFFF;" d="M520.486,1058.584c0-4.079,0.972-7.211,2.916-9.396c1.944-2.184,4.86-3.276,8.748-3.276
			c3.888,0,6.804,1.093,8.748,3.276c1.943,2.185,2.916,5.316,2.916,9.396v1.584h-7.488v-2.088c0-1.823-0.349-3.106-1.044-3.852
			c-0.696-0.744-1.668-1.116-2.916-1.116c-1.249,0-2.221,0.372-2.917,1.116c-0.696,0.745-1.044,2.028-1.044,3.852
			c0,1.729,0.384,3.253,1.152,4.572c0.767,1.321,1.728,2.568,2.88,3.744c1.151,1.177,2.387,2.353,3.708,3.528
			c1.319,1.177,2.556,2.46,3.708,3.852c1.151,1.393,2.111,2.977,2.88,4.752c0.768,1.776,1.152,3.864,1.152,6.264
			c0,4.081-0.997,7.213-2.988,9.396c-1.992,2.185-4.933,3.276-8.82,3.276c-3.888,0-6.83-1.092-8.821-3.276
			c-1.992-2.184-2.987-5.315-2.987-9.396v-3.096h7.487v3.601c0,1.824,0.372,3.096,1.116,3.815c0.744,0.72,1.74,1.08,2.989,1.08
			c1.248,0,2.243-0.36,2.988-1.08c0.743-0.72,1.115-1.991,1.115-3.815c0-1.729-0.385-3.252-1.151-4.572
			c-0.769-1.319-1.729-2.567-2.88-3.744c-1.152-1.176-2.389-2.352-3.708-3.528c-1.321-1.176-2.557-2.459-3.708-3.852
			c-1.152-1.392-2.113-2.976-2.88-4.752C520.87,1063.073,520.486,1060.985,520.486,1058.584z"/>
		<path style="fill:#FFFFFF;" d="M556.341,1067.729h10.872v7.2h-10.872v14.76h13.681v7.2h-21.601v-50.4h21.601v7.2h-13.681V1067.729
			z"/>
		<path style="fill:#FFFFFF;" d="M573.909,1058.584c0-4.079,0.972-7.211,2.916-9.396c1.944-2.184,4.86-3.276,8.748-3.276
			s6.804,1.093,8.748,3.276c1.943,2.185,2.916,5.316,2.916,9.396v1.584h-7.488v-2.088c0-1.823-0.349-3.106-1.044-3.852
			c-0.696-0.744-1.668-1.116-2.916-1.116c-1.249,0-2.221,0.372-2.916,1.116c-0.696,0.745-1.044,2.028-1.044,3.852
			c0,1.729,0.384,3.253,1.152,4.572c0.767,1.321,1.728,2.568,2.88,3.744c1.151,1.177,2.387,2.353,3.708,3.528
			c1.319,1.177,2.556,2.46,3.708,3.852c1.151,1.393,2.111,2.977,2.88,4.752c0.768,1.776,1.152,3.864,1.152,6.264
			c0,4.081-0.997,7.213-2.988,9.396c-1.992,2.185-4.933,3.276-8.82,3.276s-6.829-1.092-8.82-3.276
			c-1.992-2.184-2.987-5.315-2.987-9.396v-3.096h7.487v3.601c0,1.824,0.372,3.096,1.116,3.815c0.744,0.72,1.739,1.08,2.988,1.08
			c1.248,0,2.243-0.36,2.988-1.08c0.743-0.72,1.115-1.991,1.115-3.815c0-1.729-0.385-3.252-1.151-4.572
			c-0.768-1.319-1.729-2.567-2.88-3.744c-1.152-1.176-2.389-2.352-3.708-3.528c-1.321-1.176-2.557-2.459-3.708-3.852
			c-1.152-1.392-2.113-2.976-2.88-4.752C574.293,1063.073,573.909,1060.985,573.909,1058.584z"/>
	</g>
	<g>
		<path style="fill:#2E2E2E;" d="M626.049,1046.488h7.92v50.4h-7.92V1046.488z"/>
		<path style="fill:#2E2E2E;" d="M646.783,1060.385v36.504h-7.128v-50.4h9.937l8.136,30.168v-30.168h7.056v50.4h-8.136
			L646.783,1060.385z"/>
		<path style="fill:#2E2E2E;" d="M693.438,1078.097v6.695c0,4.081-0.996,7.213-2.987,9.396c-1.993,2.185-4.933,3.276-8.82,3.276
			s-6.829-1.092-8.82-3.276c-1.992-2.184-2.987-5.315-2.987-9.396v-26.208c0-4.079,0.995-7.211,2.987-9.396
			c1.991-2.184,4.933-3.276,8.82-3.276s6.827,1.093,8.82,3.276c1.991,2.185,2.987,5.316,2.987,9.396v4.896h-7.487v-5.4
			c0-1.823-0.373-3.106-1.116-3.852c-0.745-0.744-1.74-1.116-2.988-1.116c-1.249,0-2.244,0.372-2.988,1.116
			c-0.744,0.745-1.115,2.028-1.115,3.852v27.217c0,1.824,0.371,3.096,1.115,3.815c0.744,0.72,1.739,1.08,2.988,1.08
			c1.248,0,2.243-0.36,2.988-1.08c0.743-0.72,1.116-1.991,1.116-3.815v-7.2H693.438z"/>
		<path style="fill:#2E2E2E;" d="M698.262,1046.488h7.92v43.2h13.032v7.2h-20.952V1046.488z"/>
		<path style="fill:#2E2E2E;" d="M722.669,1046.488h7.92v50.4h-7.92V1046.488z"/>
		<path style="fill:#2E2E2E;" d="M743.404,1060.385v36.504h-7.128v-50.4h9.937l8.136,30.168v-30.168h7.056v50.4h-8.136
			L743.404,1060.385z"/>
		<path style="fill:#2E2E2E;" d="M775.012,1067.729h10.872v7.2h-10.872v14.76h13.681v7.2h-21.601v-50.4h21.601v7.2h-13.681V1067.729
			z"/>
		<path style="fill:#2E2E2E;" d="M816.411,1046.488c3.983,0,6.948,1.057,8.892,3.168c1.944,2.113,2.916,5.209,2.916,9.288v6.552
			c0,4.081-0.972,7.177-2.916,9.288c-1.943,2.113-4.908,3.168-8.892,3.168h-3.744v18.937h-7.92v-50.4H816.411z M812.667,1053.688
			v17.063h3.744c1.248,0,2.207-0.335,2.88-1.008c0.672-0.671,1.008-1.919,1.008-3.744v-7.56c0-1.823-0.336-3.071-1.008-3.744
			c-0.673-0.672-1.632-1.008-2.88-1.008H812.667z"/>
		<path style="fill:#2E2E2E;" d="M839.451,1046.488v38.88c0,1.825,0.371,3.097,1.115,3.816c0.744,0.72,1.739,1.08,2.988,1.08
			c1.248,0,2.243-0.36,2.988-1.08c0.743-0.72,1.116-1.991,1.116-3.816v-38.88h7.487v38.376c0,4.08-0.996,7.213-2.987,9.396
			c-1.993,2.185-4.933,3.276-8.82,3.276s-6.829-1.092-8.82-3.276c-1.992-2.184-2.988-5.316-2.988-9.396v-38.376H839.451z"/>
		<path style="fill:#2E2E2E;" d="M859.539,1058.584c0-4.079,0.972-7.211,2.916-9.396c1.944-2.184,4.86-3.276,8.748-3.276
			s6.804,1.093,8.748,3.276c1.943,2.185,2.916,5.316,2.916,9.396v1.584h-7.488v-2.088c0-1.823-0.349-3.106-1.044-3.852
			c-0.696-0.744-1.668-1.116-2.916-1.116c-1.249,0-2.221,0.372-2.916,1.116c-0.696,0.745-1.044,2.028-1.044,3.852
			c0,1.729,0.384,3.253,1.152,4.572c0.767,1.321,1.728,2.568,2.88,3.744c1.151,1.177,2.387,2.353,3.708,3.528
			c1.319,1.177,2.556,2.46,3.708,3.852c1.151,1.393,2.111,2.977,2.88,4.752c0.768,1.776,1.152,3.864,1.152,6.264
			c0,4.081-0.997,7.213-2.988,9.396c-1.992,2.185-4.933,3.276-8.82,3.276s-6.829-1.092-8.82-3.276
			c-1.992-2.184-2.987-5.315-2.987-9.396v-3.096h7.487v3.601c0,1.824,0.372,3.096,1.116,3.815c0.744,0.72,1.739,1.08,2.988,1.08
			c1.248,0,2.243-0.36,2.988-1.08c0.743-0.72,1.115-1.991,1.115-3.815c0-1.729-0.385-3.252-1.151-4.572
			c-0.769-1.319-1.729-2.567-2.88-3.744c-1.152-1.176-2.389-2.352-3.708-3.528c-1.321-1.176-2.557-2.459-3.708-3.852
			c-1.152-1.392-2.113-2.976-2.88-4.752C859.923,1063.073,859.539,1060.985,859.539,1058.584z"/>
		<path style="fill:#2E2E2E;" d="M895.394,1096.889h-7.92v-50.4h7.92v21.601h9v-21.601h8.064v50.4h-8.064v-21.601h-9V1096.889z"/>
		<path style="fill:#2E2E2E;" d="M936.938,1046.488v38.88c0,1.825,0.371,3.097,1.115,3.816c0.744,0.72,1.739,1.08,2.988,1.08
			c1.248,0,2.243-0.36,2.988-1.08c0.743-0.72,1.116-1.991,1.116-3.816v-38.88h7.487v38.376c0,4.08-0.996,7.213-2.987,9.396
			c-1.993,2.185-4.933,3.276-8.82,3.276s-6.829-1.092-8.82-3.276c-1.992-2.184-2.988-5.316-2.988-9.396v-38.376H936.938z"/>
		<path style="fill:#2E2E2E;" d="M969.696,1046.488c3.983,0,6.948,1.057,8.892,3.168c1.944,2.113,2.916,5.209,2.916,9.288v6.552
			c0,4.081-0.972,7.177-2.916,9.288c-1.943,2.113-4.908,3.168-8.892,3.168h-3.744v18.937h-7.92v-50.4H969.696z M965.952,1053.688
			v17.063h3.744c1.248,0,2.207-0.335,2.88-1.008c0.672-0.671,1.008-1.919,1.008-3.744v-7.56c0-1.823-0.336-3.071-1.008-3.744
			c-0.673-0.672-1.632-1.008-2.88-1.008H965.952z"/>
	</g>
	<g>
		<path style="fill:#F2F2F2;" d="M829.627,462.665H362.118c-7.192,0-13.022-5.83-13.022-13.022l0,0
			c0-7.192,5.83-13.022,13.022-13.022h467.509c7.192,0,13.022,5.83,13.022,13.022l0,0
			C842.649,456.835,836.819,462.665,829.627,462.665z"/>
		<g>
			<g>
				<g>
					<g>
						<g>
							<g>
								<path style="fill:#FDDCBE;" d="M696.823,194.042L696.823,194.042c5.943,9.331,18.325,12.077,27.656,6.133l13.678-8.712
									l-21.522-33.79l-13.678,8.712C693.626,172.329,690.88,184.711,696.823,194.042z"/>
							</g>
						</g>
					</g>
					<g>
						<g>
							<g>
								<polygon style="fill:#FDDCBE;" points="784.641,168.221 760.234,129.902 716.635,157.673 743.36,199.631 								"/>
							</g>
						</g>
					</g>
					<g>
						<g>
							<g>
								<polygon style="fill:#2E2E2E;" points="784.641,168.221 800.545,169.005 791.398,161.358 774.694,128.42 758.153,123.04 
									730.204,149.03 765.611,138.343 								"/>
							</g>
						</g>
					</g>
					<g>
						<g>
							<g>
								<path style="fill:#FDDCBE;" d="M747.437,137.315c-2.118,1.349-2.741,4.16-1.392,6.278c1.349,2.118,4.16,2.741,6.278,1.392
									c2.118-1.349,2.741-4.16,1.392-6.278C752.365,136.589,749.555,135.966,747.437,137.315z"/>
							</g>
						</g>
					</g>
					<g>
						<g>
							<g>
								<polygon style="fill:#E6E6E6;" points="735.442,193.192 738.157,191.463 721.762,165.724 								"/>
							</g>
						</g>
					</g>
				</g>
				<g>
					<g>
						<g>
							<path style="fill:#CD3700;" d="M582.255,263.713l24.042,37.746c69.604-33.374,87.819-26.261,115.922-73.234
								c9.718-26.703-14.779-65.842-17.826-63.523c0,0-36.694,9.035-65.174,51.457C622.306,241.351,582.255,263.713,582.255,263.713
								z"/>
						</g>
					</g>
				</g>
				<g>
					<g>
						<g>
							<g>
								<g>
									<g>
										<path style="fill:#FDDCBE;" d="M367.179,407.324c-8.535,6.011,0.164,19.26,9.337,14.659l106.773-52.485l-16.923-26.568
											L367.179,407.324z"/>
									</g>
								</g>
							</g>
						</g>
					</g>
					<g>
						<g>
							<g>
								<path style="fill:#2E2E2E;" d="M377.371,455.79l-26.642-41.884c4.906-3.132,9.918-6.319,15.007-7.807
									c0.792-0.231,1.561,0.408,1.442,1.225c-0.728,5.028,4.085,13.181,9.257,14.337c0.873,0.195,1.519,0.913,1.485,1.807
									c-0.121,3.214-0.047,10.478,2.509,16.852c2.025,5.05,4.136,10.657-0.496,13.805L377.371,455.79z"/>
							</g>
						</g>
					</g>
					<g>
						<g>
							<g>
								<path style="fill:#FFFFFF;" d="M349.946,416.831l21.826,34.266c3.333,5.232,6.105,5.324,7.135,4.669l0,0
									c0.382-0.243,0.644-0.878,0.262-1.12c-4.837-3.058-11.353-13.897-14.766-21.876c-3.518-8.225-8.717-18.092-10.589-20.813
									c-0.358-0.521-0.889-0.363-1.422-0.023l-0.61,0.388C349.925,413.504,348.763,414.973,349.946,416.831z"/>
							</g>
						</g>
					</g>
				</g>
				<g>
					<path style="fill:#2E2E2E;" d="M606.297,301.459l-24.042-37.746c-13.47-3.412-46.319,6.835-49.638,33.95
						c-14.712,7.632-27.846,16.351-38.845,26.541l18.707,29.369C527.028,350.718,593.767,315.778,606.297,301.459z"/>
					<g>
						<g>
							<g>
								<polygon style="fill:#FDDCBE;" points="512.48,353.573 483.289,369.499 466.366,342.93 493.773,324.204 								"/>
							</g>
						</g>
					</g>
				</g>
			</g>
			<g>
				<g>
					<g>
						<path style="fill:#FDDCBE;" d="M613.24,239.469L613.24,239.469c4.755,7.629,14.463,10.498,22.6,6.678l66.704-31.309
							c11.995-5.63,16.381-20.473,9.372-31.719l0,0c-6.461-10.366-20.102-13.532-30.468-7.071l-62.535,38.975
							C610.596,220.206,608.056,231.151,613.24,239.469z"/>
					</g>
				</g>
			</g>
			<g>
				<g>
					<g>
						<g>
							<path style="fill:#FDDCBE;" d="M702.663,316.737l-11.411,7.168l-76.076-82.304c-6.517-7.051-6.119-18.04,0.891-24.6l0,0
								c8.045-7.529,20.967-5.816,26.772,3.549L702.663,316.737z"/>
						</g>
					</g>
				</g>
			</g>
			<polygon style="fill:#FDDCBE;" points="691.252,323.905 721.027,323.82 719.394,319.291 699.494,316.254 			"/>
		</g>
		<path style="fill:#F2F2F2;" d="M809.941,323.818H689.332c-2.209,0-4,1.791-4,4v120.609c0,2.209,1.791,4,4,4h120.609
			c2.209,0,4-1.791,4-4V327.818C813.941,325.609,812.15,323.818,809.941,323.818z"/>
	</g>
	<g>
		<path style="fill:#F2F2F2;" d="M829.627,934.29H362.118c-7.192,0-13.022-5.83-13.022-13.022l0,0
			c0-7.192,5.83-13.022,13.022-13.022h467.509c7.192,0,13.022,5.83,13.022,13.022l0,0C842.649,928.46,836.819,934.29,829.627,934.29
			z"/>
		<g>
			<g>
				<g>
					<g>
						<g>
							<g>
								<path style="fill:#FDDCBE;" d="M652.808,609.633L652.808,609.633c7.513,8.121,20.186,8.613,28.307,1.101l11.904-11.013
									l-27.206-29.407l-11.904,11.013C645.788,588.839,645.295,601.513,652.808,609.633z"/>
							</g>
						</g>
					</g>
					<g>
						<g>
							<g>
								<polygon style="fill:#FDDCBE;" points="734.61,568.558 703.758,535.209 665.813,570.314 699.595,606.83 								"/>
							</g>
						</g>
					</g>
					<g>
						<g>
							<g>
								<polygon style="fill:#2E2E2E;" points="734.61,568.558 750.399,566.492 740.034,560.6 717.721,531.171 700.486,528.829 
									677.623,559.388 710.554,542.556 								"/>
							</g>
						</g>
					</g>
					<g>
						<g>
							<g>
								<path style="fill:#FDDCBE;" d="M692.488,544.786c-1.843,1.705-1.955,4.582-0.25,6.425c1.705,1.843,4.582,1.955,6.425,0.25
									c1.843-1.705,1.955-4.582,0.25-6.425C697.208,543.193,694.331,543.081,692.488,544.786z"/>
							</g>
						</g>
					</g>
					<g>
						<g>
							<g>
								<polygon style="fill:#E6E6E6;" points="690.656,601.907 693.019,599.721 672.294,577.32 								"/>
							</g>
						</g>
					</g>
				</g>
				<g>
					<g>
						<g>
							<path style="fill:#CD3700;" d="M552.509,698.628l30.391,32.85c62.532-45.257,81.724-41.509,100.995-92.741
								c4.798-28.009-26.29-62.148-28.874-59.324c0,0-34.493,15.437-54.947,62.26C587.928,669.479,552.509,698.628,552.509,698.628z
								"/>
						</g>
					</g>
				</g>
				<g>
					<g>
						<g>
							<g>
								<g>
									<g>
										<path style="fill:#FDDCBE;" d="M366.507,878.31c-7.326,7.437,3.597,18.922,11.803,12.758l95.695-70.693l-21.392-23.123
											L366.507,878.31z"/>
									</g>
								</g>
							</g>
						</g>
					</g>
					<g>
						<g>
							<g>
								<path style="fill:#2E2E2E;" d="M385.184,924.179l-33.688-36.458c4.268-3.957,8.632-7.988,13.374-10.359
									c0.738-0.369,1.608,0.123,1.638,0.948c0.18,5.077,6.371,12.24,11.666,12.456c0.894,0.036,1.657,0.627,1.784,1.513
									c0.455,3.184,1.823,10.318,5.476,16.134c2.893,4.607,5.971,9.748,1.975,13.672L385.184,924.179z"/>
							</g>
						</g>
					</g>
					<g>
						<g>
							<g>
								<path style="fill:#FFFFFF;" d="M351.247,890.738l27.589,29.822c4.213,4.553,6.957,4.15,7.853,3.321l0,0
									c0.332-0.307,0.477-0.979,0.058-1.149c-5.305-2.146-13.65-11.648-18.432-18.891c-4.929-7.465-11.805-16.246-14.132-18.59
									c-0.445-0.448-0.939-0.198-1.403,0.231l-0.531,0.491C350.633,887.468,349.752,889.122,351.247,890.738z"/>
							</g>
						</g>
					</g>
				</g>
				<g>
					<path style="fill:#2E2E2E;" d="M582.9,731.479l-30.391-32.85c-13.862-0.954-44.357,14.989-42.784,42.261
						c-13.114,10.135-24.482,21.057-33.486,33.046l23.647,25.56C513.692,794.091,573.126,747.804,582.9,731.479z"/>
					<g>
						<g>
							<g>
								<polygon style="fill:#FDDCBE;" points="499.886,799.497 474.005,820.374 452.614,797.252 476.239,773.936 								"/>
							</g>
						</g>
					</g>
				</g>
			</g>
			<g>
				<g>
					<g>
						<path style="fill:#FDDCBE;" d="M664.493,701.13L664.493,701.13c8.803-1.821,14.854-9.937,14.086-18.893l-6.291-73.417
							c-1.131-13.203-13.54-22.454-26.516-19.77l0,0c-11.961,2.474-19.653,14.177-17.178,26.138l14.926,72.159
							C645.505,696.944,654.896,703.115,664.493,701.13z"/>
					</g>
				</g>
			</g>
			<g>
				<g>
					<g>
						<g>
							<path style="fill:#FDDCBE;" d="M689.887,793.861l-12.965,3.937l-32.567-107.243c-2.79-9.187,2.361-18.902,11.53-21.749l0,0
								c10.523-3.267,21.405,3.91,22.545,14.869L689.887,793.861z"/>
						</g>
					</g>
				</g>
			</g>
			<polygon style="fill:#FDDCBE;" points="676.922,797.798 706.698,797.798 705.077,793.265 685.186,790.17 			"/>
		</g>
		<path style="fill:#F2F2F2;" d="M796.802,797.88H676.193c-2.209,0-4,1.791-4,4v120.609c0,2.209,1.791,4,4,4h120.609
			c2.209,0,4-1.791,4-4V801.88C800.802,799.67,799.011,797.88,796.802,797.88z"/>
	</g>
</g>
</svg>
